<svg width="29" height="28" viewBox="0 0 29 28" fill="none" xmlns="http://www.w3.org/2000/svg">
<path fill-rule="evenodd" clip-rule="evenodd" d="M14.3744 2.45831C10.4081 2.45831 7.16105 5.59969 7.16105 9.50831C7.16105 13.4169 10.4081 16.5583 14.3744 16.5583C18.3406 16.5583 21.5877 13.4169 21.5877 9.50831C21.5877 5.59969 18.3406 2.45831 14.3744 2.45831ZM8.66105 9.50831C8.66105 6.4636 11.2006 3.95831 14.3744 3.95831C17.5481 3.95831 20.0877 6.4636 20.0877 9.50831C20.0877 12.553 17.5481 15.0583 14.3744 15.0583C11.2006 15.0583 8.66105 12.553 8.66105 9.50831ZM5.66264 25.7947C7.59152 22.9384 10.9304 21.47 14.3303 21.4584C17.7283 21.4468 21.0814 22.8909 23.0403 25.7258L23.0835 25.7906C23.313 26.1354 23.7786 26.2288 24.1234 25.9993C24.4682 25.7697 24.5616 25.3041 24.3321 24.9594L24.2854 24.8893L24.2855 24.8892L24.2784 24.8789C21.9902 21.5628 18.1275 19.9454 14.3252 19.9584C10.5228 19.9713 6.67511 21.6151 4.41954 24.9552C4.18773 25.2985 4.27809 25.7647 4.62136 25.9965C4.96463 26.2283 5.43083 26.138 5.66264 25.7947Z" fill="#B8BCC0"/>
</svg>
