<svg width="24" height="24" viewBox="0 0 24 24" fill="none" xmlns="http://www.w3.org/2000/svg">
<path fill-rule="evenodd" clip-rule="evenodd" d="M7.44193 8.75H8.86693L9.3555 7.4105L9.69207 6.48221C9.73971 6.35132 9.82648 6.23826 9.94059 6.15838C10.0547 6.0785 10.1906 6.03567 10.3299 6.03571H14.6701C14.8095 6.03577 14.9456 6.0788 15.0597 6.15893C15.1738 6.23907 15.2605 6.35242 15.3079 6.48357L15.6459 7.4105L16.1331 8.75H17.9286C18.4685 8.75 18.9863 8.96448 19.368 9.34625C19.7498 9.72802 19.9643 10.2458 19.9643 10.7857V16.8929C19.9643 17.4328 19.7498 17.9506 19.368 18.3323C18.9863 18.7141 18.4685 18.9286 17.9286 18.9286H7.07143C6.53152 18.9286 6.01373 18.7141 5.63196 18.3323C5.25019 17.9506 5.03571 17.4328 5.03571 16.8929V10.7857C5.03571 10.2458 5.25019 9.72802 5.63196 9.34625C6.01373 8.96448 6.53152 8.75 7.07143 8.75H7.44193ZM10.3286 4C9.77124 3.99993 9.22739 4.17144 8.77092 4.49121C8.31444 4.81099 7.96747 5.26353 7.77714 5.78736L7.44057 6.71429H7.07143C5.99162 6.71429 4.95603 7.14324 4.19249 7.90678C3.42895 8.67032 3 9.7059 3 10.7857V16.8929C3 17.9727 3.42895 19.0083 4.19249 19.7718C4.95603 20.5353 5.99162 20.9643 7.07143 20.9643H17.9286C19.0084 20.9643 20.044 20.5353 20.8075 19.7718C21.571 19.0083 22 17.9727 22 16.8929V10.7857C22 9.7059 21.571 8.67032 20.8075 7.90678C20.044 7.14324 19.0084 6.71429 17.9286 6.71429H17.5581L17.2215 5.78736C17.0312 5.26353 16.6842 4.81099 16.2277 4.49121C15.7713 4.17144 15.2274 3.99993 14.6701 4H10.3286ZM14.5344 13.5C14.5344 14.0399 14.3199 14.5577 13.9381 14.9395C13.5563 15.3212 13.0385 15.5357 12.4986 15.5357C11.9587 15.5357 11.4409 15.3212 11.0592 14.9395C10.6774 14.5577 10.4629 14.0399 10.4629 13.5C10.4629 12.9601 10.6774 12.4423 11.0592 12.0605C11.4409 11.6788 11.9587 11.4643 12.4986 11.4643C13.0385 11.4643 13.5563 11.6788 13.9381 12.0605C14.3199 12.4423 14.5344 12.9601 14.5344 13.5ZM16.5701 13.5C16.5701 14.0347 16.4648 14.5641 16.2602 15.0581C16.0555 15.552 15.7556 16.0009 15.3776 16.3789C14.9995 16.757 14.5507 17.0569 14.0567 17.2615C13.5627 17.4661 13.0333 17.5714 12.4986 17.5714C11.964 17.5714 11.4345 17.4661 10.9406 17.2615C10.4466 17.0569 9.99778 16.757 9.61971 16.3789C9.24164 16.0009 8.94174 15.552 8.73713 15.0581C8.53252 14.5641 8.42721 14.0347 8.42721 13.5C8.42721 12.4202 8.85617 11.3846 9.61971 10.6211C10.3832 9.85752 11.4188 9.42857 12.4986 9.42857C13.5785 9.42857 14.614 9.85752 15.3776 10.6211C16.1411 11.3846 16.5701 12.4202 16.5701 13.5Z" fill="#222222"/>
</svg>
