<svg width="28" height="28" viewBox="0 0 28 28" fill="none" xmlns="http://www.w3.org/2000/svg">
<path fill-rule="evenodd" clip-rule="evenodd" d="M5.11501 5.10362C5.84995 4.36867 6.83777 3.95831 7.87467 3.95831H19.5413C20.5812 3.95831 21.5777 4.37057 22.2975 5.10005C23.0272 5.83964 23.4463 6.83064 23.4463 7.8633V14.1319C23.3817 15.3205 22.9084 16.4518 22.111 17.3464L17.3454 22.1235C16.451 22.9205 15.3199 23.3937 14.1316 23.4583H7.87467C6.84056 23.4583 5.84028 23.0383 5.10334 22.3013C4.36979 21.5678 3.95801 20.5689 3.95801 19.53V7.8633C3.95801 6.82402 4.36976 5.82935 5.10789 5.11065L5.10793 5.11069L5.11501 5.10362ZM7.87467 2.45831C6.43991 2.45831 5.07257 3.02659 4.05787 4.03944C3.02494 5.0471 2.45801 6.43091 2.45801 7.8633V19.53C2.45801 20.9644 3.02623 22.3455 4.04268 23.362C5.05574 24.375 6.43545 24.9583 7.87467 24.9583H14.1513H14.1704L14.1894 24.9573C15.7412 24.8784 17.2104 24.2605 18.3624 23.2264L18.3777 23.2126L18.3923 23.198L23.1873 18.3913L23.2013 18.3774L23.2144 18.3627C24.2486 17.2107 24.8665 15.7415 24.9454 14.1897L24.9463 14.1707V14.1517V7.8633C24.9463 6.42263 24.3622 5.05695 23.3652 4.04653C22.3583 3.02602 20.9749 2.45831 19.5413 2.45831H7.87467ZM16.1282 16.117C16.3471 15.898 16.6688 15.765 16.9862 15.765H20.2179C20.6321 15.765 20.9679 15.4292 20.9679 15.015C20.9679 14.6008 20.6321 14.265 20.2179 14.265H16.9862C16.2769 14.265 15.5719 14.5519 15.0675 15.0563C14.5589 15.5649 14.2645 16.2436 14.2645 16.975V20.265C14.2645 20.6792 14.6003 21.015 15.0145 21.015C15.4287 21.015 15.7645 20.6792 15.7645 20.265V16.975C15.7645 16.6563 15.8902 16.355 16.1282 16.117Z" fill="#B8BCC0"/>
</svg>
