<svg width="24" height="24" viewBox="0 0 24 24" fill="none" xmlns="http://www.w3.org/2000/svg">
<path fill-rule="evenodd" clip-rule="evenodd" d="M11.5499 4.34416C11.6327 4.14211 11.8312 4 12.0615 4C12.2918 4 12.4904 4.14206 12.5732 4.34406C12.4046 4.33133 12.2342 4.32485 12.0624 4.32485C11.8899 4.32485 11.719 4.33136 11.5499 4.34416ZM9.52287 4.82326C9.51351 4.73508 9.50867 4.64532 9.50867 4.55417C9.50867 3.14477 10.6513 2 12.0615 2C13.4718 2 14.6144 3.14477 14.6144 4.55417C14.6144 4.645 14.6096 4.73466 14.6003 4.82291C17.0389 5.82308 18.7583 8.22161 18.7583 11.0255V16.5532H19.125C19.6773 16.5532 20.125 17.0009 20.125 17.5532C20.125 18.1055 19.6773 18.5532 19.125 18.5532H16.0254C15.5786 20.3264 13.9719 21.6429 12.0617 21.6429C10.1516 21.6429 8.54489 20.3264 8.09813 18.5532H5C4.44772 18.5532 4 18.1055 4 17.5532C4 17.0009 4.44772 16.5532 5 16.5532H5.3664V11.0255C5.3664 8.22677 7.08219 5.82482 9.52287 4.82326ZM10.23 18.5532C10.5851 19.2018 11.2739 19.6429 12.0617 19.6429C12.8496 19.6429 13.5384 19.2018 13.8935 18.5532H10.23ZM8.97462 16.5532H15.1489H16.7583V11.0255C16.7583 8.42589 14.653 6.32485 12.0624 6.32485C9.46689 6.32485 7.3664 8.43069 7.3664 11.0255V16.5532H8.97462Z" fill="#222222"/>
</svg>
